<?xml version="1.0" standalone="no"?>
<!DOCTYPE svg PUBLIC "-//W3C//DTD SVG 20010904//EN"
 "http://www.w3.org/TR/2001/REC-SVG-20010904/DTD/svg10.dtd">
<svg version="1.0" xmlns="http://www.w3.org/2000/svg"
 width="500.000000pt" height="500.000000pt" viewBox="0 0 500.000000 500.000000"
 preserveAspectRatio="xMidYMid meet">
<metadata>
Created by potrace 1.14, written by Peter Selinger 2001-2017
</metadata>
<g transform="translate(0.000000,500.000000) scale(0.100000,-0.100000)"
fill="#000000" stroke="none">
<path d="M2467 4980 c-14 -11 -28 -20 -31 -20 -3 0 -67 -37 -143 -81 -76 -45
-151 -89 -168 -98 -16 -9 -67 -39 -113 -66 -46 -28 -95 -57 -110 -65 -15 -8
-30 -19 -34 -25 -5 -7 -8 -7 -8 0 0 6 -7 2 -14 -8 -8 -10 -16 -18 -18 -17 -10
4 -58 -21 -58 -31 0 -7 -3 -9 -6 -6 -4 4 -19 -2 -33 -12 -14 -10 -36 -22 -49
-25 -13 -4 -19 -12 -16 -18 5 -7 1 -9 -9 -5 -10 3 -17 2 -17 -3 0 -6 -6 -10
-14 -10 -8 0 -17 -7 -20 -16 -3 -8 -10 -13 -15 -10 -5 4 -17 -1 -25 -10 -9 -8
-16 -13 -16 -9 0 6 -49 -24 -69 -43 -7 -7 -20 -11 -27 -8 -8 3 -13 2 -11 -2 1
-4 -2 -9 -8 -11 -5 -2 -21 -12 -34 -22 -13 -10 -27 -16 -32 -13 -5 3 -9 -2 -9
-10 0 -9 -3 -15 -7 -15 -20 3 -34 -2 -29 -10 4 -5 -2 -8 -11 -7 -10 2 -26 -7
-36 -18 -10 -12 -16 -14 -12 -6 6 13 5 13 -7 0 -13 -15 -69 -44 -77 -40 -2 1
-8 -5 -13 -14 -5 -9 -14 -16 -19 -16 -6 0 -23 -9 -39 -20 -15 -11 -30 -17 -34
-13 -3 3 -6 1 -6 -5 0 -7 -7 -12 -16 -12 -8 0 -12 -4 -9 -10 5 -8 -19 -15 -28
-7 -1 1 -13 -8 -27 -20 -13 -13 -30 -23 -37 -23 -7 0 -13 -5 -13 -11 0 -5 -5
-7 -10 -4 -6 3 -10 3 -10 -2 0 -4 -18 -17 -40 -27 -22 -11 -40 -24 -40 -29 0
-6 -3 -7 -6 -4 -4 4 -20 -3 -35 -14 -16 -11 -29 -17 -29 -12 0 4 -5 0 -11 -9
-5 -10 -14 -18 -19 -18 -5 0 -32 -13 -60 -30 -27 -16 -50 -26 -50 -22 0 4 -5
-1 -11 -10 -5 -10 -15 -18 -21 -18 -6 0 -20 -8 -31 -17 -15 -13 -19 -14 -13
-3 4 9 2 8 -7 -2 -8 -10 -19 -18 -26 -18 -6 0 -11 -4 -11 -10 0 -5 -6 -10 -14
-10 -8 0 -17 -7 -20 -16 -5 -13 -9 -14 -22 -3 -12 10 -15 10 -12 -2 2 -8 -3
-13 -9 -11 -7 1 -13 -3 -13 -10 0 -6 -3 -9 -6 -5 -4 3 -12 1 -20 -6 -7 -7 -20
-18 -29 -25 -11 -10 -14 -29 -12 -77 2 -36 -1 -65 -6 -65 -4 0 -5 -5 -2 -10
10 -16 12 -110 2 -110 -4 0 -6 -4 -2 -9 11 -19 13 -91 3 -84 -7 4 -8 1 -3 -7
12 -19 12 -120 0 -120 -7 0 -7 -3 0 -8 15 -11 17 -32 3 -32 -8 0 -9 -3 -3 -8
6 -4 10 -29 10 -57 0 -27 -4 -53 -10 -57 -6 -5 -5 -8 4 -8 11 0 11 -3 1 -15
-7 -8 -9 -15 -4 -15 5 0 9 -59 9 -130 0 -72 -4 -130 -8 -130 -5 0 -5 -5 -1
-11 11 -18 11 -99 -1 -99 -6 0 -7 -3 0 -8 12 -9 14 -82 2 -82 -4 0 -5 -5 -2
-10 11 -18 12 -110 0 -110 -6 0 -7 -3 0 -8 6 -4 10 -40 10 -80 0 -41 -4 -72
-10 -72 -5 0 -3 -5 5 -10 13 -9 13 -10 0 -10 -9 0 -11 -3 -5 -8 6 -4 10 -38
10 -77 0 -38 -4 -73 -10 -77 -7 -5 -7 -8 0 -8 6 0 10 -20 10 -45 0 -25 -4 -45
-8 -45 -5 0 -5 -5 -2 -10 10 -16 12 -110 2 -110 -4 0 -5 -5 -2 -10 10 -16 12
-110 2 -110 -4 0 -5 -5 -2 -10 10 -16 12 -110 2 -110 -4 0 -5 -5 -2 -10 10
-17 12 -110 2 -110 -5 0 -4 -7 3 -15 10 -12 10 -15 -1 -15 -9 0 -10 -3 -4 -8
6 -4 10 -18 10 -32 0 -14 -4 -28 -10 -32 -7 -5 -7 -8 0 -8 6 0 10 -19 10 -42
0 -24 -4 -46 -10 -50 -6 -5 -4 -8 5 -8 13 0 13 -1 0 -10 -8 -5 -10 -10 -4 -10
6 0 11 -7 11 -15 0 -8 -5 -15 -11 -15 -6 0 -6 -4 1 -11 6 -6 9 -18 6 -25 -6
-17 13 -36 55 -53 17 -7 32 -18 32 -24 0 -6 3 -7 7 -4 3 4 12 -1 20 -11 9 -10
11 -11 7 -2 -7 13 -6 13 12 0 10 -8 21 -18 24 -22 3 -3 12 -8 20 -10 8 -2 22
-10 30 -18 8 -8 22 -16 30 -18 8 -2 17 -8 18 -13 2 -5 7 -7 12 -4 4 2 18 -4
30 -15 12 -11 27 -17 31 -14 5 3 9 -2 9 -11 0 -9 5 -13 10 -10 6 3 10 1 10 -5
0 -6 4 -8 10 -5 5 3 10 1 10 -5 0 -7 7 -10 15 -6 8 3 15 2 15 -3 0 -5 16 -16
35 -25 19 -9 35 -21 35 -26 0 -5 6 -7 14 -4 7 3 16 -2 20 -11 3 -9 10 -13 16
-10 5 3 10 1 10 -4 0 -6 6 -11 13 -11 7 0 23 -9 35 -20 12 -11 28 -20 37 -20
8 0 15 -5 15 -11 0 -5 5 -7 10 -4 6 3 13 -1 16 -10 4 -9 13 -14 20 -11 8 3 14
1 14 -3 0 -5 18 -18 40 -30 22 -11 40 -17 40 -14 0 4 7 -3 16 -15 9 -13 22
-21 28 -19 7 3 18 -4 24 -14 7 -10 21 -19 32 -19 11 0 20 -5 20 -11 0 -5 5 -7
10 -4 5 3 10 1 10 -4 0 -6 6 -11 13 -11 7 0 23 -9 34 -19 12 -11 24 -17 27
-14 3 4 6 1 6 -6 0 -7 4 -9 10 -6 5 3 10 2 10 -3 0 -4 16 -14 35 -22 19 -7 32
-17 29 -22 -3 -4 1 -8 9 -8 21 0 68 -26 60 -33 -3 -4 3 -7 15 -7 12 0 22 -4
22 -8 0 -5 16 -14 35 -22 19 -8 35 -17 35 -22 0 -4 5 -8 11 -8 6 0 25 -10 42
-22 18 -13 28 -16 23 -7 -4 7 2 3 13 -10 12 -13 21 -19 21 -15 0 5 5 1 11 -9
6 -9 15 -14 21 -11 6 4 13 2 17 -3 3 -6 169 -105 369 -222 l363 -211 62 36
c34 20 76 44 92 54 17 9 75 43 130 75 55 32 178 103 273 158 94 55 172 104
172 109 0 5 4 7 9 3 5 -3 16 1 24 9 8 8 17 12 21 9 3 -3 8 2 12 11 3 9 10 13
15 10 5 -3 9 0 9 6 0 6 5 8 10 5 6 -3 10 -2 10 4 0 6 7 7 17 4 9 -4 14 -2 10
3 -3 5 20 23 51 39 31 17 63 37 70 45 12 13 13 13 7 0 -4 -8 1 -6 9 4 9 11 16
16 16 10 0 -5 3 -5 8 1 8 11 45 34 109 67 23 11 40 25 36 31 -3 5 3 6 15 3 13
-4 22 -1 26 9 3 8 12 15 21 15 8 0 15 4 15 8 0 4 16 14 35 21 21 7 33 17 29
23 -4 6 -2 8 4 4 6 -3 13 -2 17 4 4 6 10 8 15 5 4 -3 11 2 14 11 3 8 10 12 16
9 5 -3 10 -1 10 4 0 6 6 11 14 11 8 0 22 7 30 16 9 8 16 12 16 7 0 -4 7 1 15
11 8 11 15 16 15 12 0 -4 13 2 29 13 16 12 34 21 40 21 6 0 11 5 11 11 0 5 4
8 8 5 5 -3 19 4 31 15 12 12 25 18 28 15 4 -3 12 3 20 14 8 11 22 20 32 20 10
0 24 7 31 15 7 8 19 15 26 15 8 0 14 5 14 11 0 5 5 7 10 4 6 -3 10 -2 10 3 0
6 13 14 28 20 16 5 35 16 43 24 8 7 29 20 47 27 17 7 32 17 32 22 0 5 3 8 8 8
19 -3 33 2 27 11 -3 6 3 10 14 10 12 0 21 5 21 11 0 6 6 9 13 6 7 -3 19 4 25
14 7 10 15 18 20 17 12 -3 62 24 62 34 0 4 7 8 15 8 17 0 30 41 22 70 -3 11
-1 20 5 20 5 0 6 5 2 12 -10 16 -11 68 -1 68 4 0 3 9 -3 20 -8 14 -8 20 0 20
6 0 8 5 5 10 -9 15 -11 270 -2 270 5 0 5 5 1 11 -10 16 -11 99 -1 99 5 0 5 5
1 11 -9 16 -11 279 -1 279 5 0 5 5 1 11 -11 19 -10 149 1 149 7 0 7 3 0 8 -12
8 -14 102 -2 102 5 0 5 5 1 11 -9 16 -11 109 -1 109 5 0 5 5 1 11 -11 18 -10
179 1 179 7 0 7 3 0 8 -12 8 -14 122 -2 122 5 0 5 5 1 11 -9 15 -9 164 0 178
4 6 3 11 -3 11 -7 0 -7 8 -1 24 5 13 6 27 3 30 -8 7 -7 105 1 113 3 3 1 12 -5
20 -9 10 -8 13 0 13 7 0 9 5 5 12 -8 13 -12 78 -4 78 3 0 3 70 0 155 -3 85 -1
155 3 155 5 0 5 5 1 12 -5 7 -7 29 -5 50 3 40 -15 68 -44 68 -9 0 -13 5 -10
10 3 6 -3 10 -15 10 -11 0 -23 7 -26 15 -4 8 -14 15 -24 15 -11 0 -22 4 -25
10 -3 5 -21 17 -40 26 -19 9 -35 21 -35 26 0 5 -4 6 -10 3 -5 -3 -10 -1 -10 5
0 6 -4 8 -10 5 -5 -3 -10 -1 -10 5 0 6 -4 8 -10 5 -5 -3 -10 -2 -10 3 0 6 -13
15 -30 21 -16 5 -30 15 -30 20 0 6 -7 7 -17 4 -10 -4 -14 -2 -10 4 6 10 -27
27 -45 24 -5 -1 -8 2 -8 7 0 4 -17 16 -37 27 -21 11 -40 22 -43 25 -3 3 -26
16 -52 29 -27 13 -48 28 -48 33 0 5 -4 6 -10 3 -5 -3 -10 -1 -10 5 0 6 -4 8
-10 5 -5 -3 -10 -3 -10 2 0 4 -18 17 -40 27 -22 11 -40 23 -40 28 0 5 -4 6
-10 3 -5 -3 -10 -1 -10 5 0 6 -4 9 -9 6 -5 -3 -12 1 -15 9 -3 8 -9 14 -13 13
-13 -3 -83 35 -83 44 0 5 -4 6 -10 3 -5 -3 -10 -1 -10 4 0 6 -7 11 -15 11 -8
0 -15 5 -15 11 0 5 -4 7 -10 4 -5 -3 -10 -1 -10 5 0 7 -7 10 -15 6 -9 -3 -15
0 -15 10 0 8 -4 12 -10 9 -5 -3 -10 -2 -10 3 0 8 -21 18 -45 21 -3 0 -12 6
-21 13 -34 29 -40 33 -54 36 -8 2 -17 8 -18 13 -2 5 -8 7 -13 3 -5 -3 -9 0 -9
5 0 6 -7 11 -15 11 -7 0 -19 8 -24 18 -6 9 -11 13 -11 9 0 -5 -12 0 -27 11
-16 11 -32 21 -38 22 -5 2 -34 18 -63 36 -29 19 -59 34 -68 34 -9 0 -12 5 -8
12 5 7 2 9 -9 5 -9 -3 -18 0 -21 9 -3 8 -11 14 -18 14 -7 0 -24 9 -38 20 -14
11 -32 20 -42 20 -9 0 -18 4 -20 10 -2 8 -601 360 -612 360 -2 0 -15 -9 -29
-20z"/>
</g>
</svg>
